<?xml version="1.0" encoding="UTF-8"?>
<svg width="62px" height="62px" viewBox="0 0 62 62" version="1.1" xmlns="http://www.w3.org/2000/svg" xmlns:xlink="http://www.w3.org/1999/xlink">
    <title>83FE0D1C-65C7-499A-A258-BE488F42C235</title>
    <defs>
        <polygon id="path-1" points="0 -3.02800643e-15 7.01021242 -3.02800643e-15 7.01021242 3.03023208 0 3.03023208"></polygon>
        <polygon id="path-3" points="0 0 16.8325298 0 16.8325298 25.2432269 0 25.2432269"></polygon>
        <polygon id="path-5" points="0 0 21.7024341 0 21.7024341 25.6616195 0 25.6616195"></polygon>
    </defs>
    <g id="Page-1" stroke="none" stroke-width="1" fill="none" fill-rule="evenodd">
        <g id="Origin-Home-Page" transform="translate(-140.000000, -59.000000)">
            <g id="Origin-Logomark" transform="translate(140.000000, 59.000000)">
                <circle id="Oval" fill="#FFD07A" cx="31" cy="31" r="31"></circle>
                <g id="Group-14" transform="translate(13.000000, 13.000000)">
                    <path d="M33.6424947,25.7757436 C31.1842252,24.4896108 29.3585814,25.7808574 27.7479323,26.9199671 C27.6102845,27.0171303 27.4741283,27.1136541 27.3386113,27.2078342 C25.9357123,28.1794653 24.0510461,28.1798915 22.6481471,27.2078342 L21.4781413,26.39665 C19.3780543,24.9409079 16.5554231,24.9409079 14.455123,26.39665 L13.2891656,27.2050642 C11.8856274,28.1777607 10.0067143,28.1843661 8.6136168,27.2204057 C8.46041443,27.1145064 8.30849053,27.0062633 8.15614047,26.8986594 C6.5876806,25.7857582 4.9657384,24.6353554 2.42394275,25.6770889 C1.91404947,25.8865436 1.64450705,26.44651 1.81006789,26.9529941 C1.898921,27.2244542 2.09814801,27.448185 2.3568235,27.5666559 C2.61549898,27.6855528 2.91444603,27.6904536 3.17716998,27.5811451 C4.68809906,26.9508633 5.58962788,27.5894551 6.95438613,28.5566116 C7.1075885,28.6650678 7.26526549,28.7767202 7.42869555,28.8900772 C9.52878256,30.3460324 12.3512006,30.3460324 14.4517138,28.8900772 L15.6215066,28.078893 C17.0244056,27.1070487 18.9090718,27.1070487 20.3117577,28.078893 C20.4376862,28.1662546 20.561484,28.2538292 20.6846425,28.3405516 C21.8804307,29.1849757 23.0095257,29.9823099 24.9926335,29.9823099 L24.9934858,29.9823099 C26.964235,29.9823099 28.2814771,29.0605388 29.3398306,28.3198831 C30.5215557,27.4929312 31.3749291,26.8954633 32.7019727,27.5943559 C32.9736459,27.7375436 33.2917699,27.7511805 33.5764408,27.6318574 C33.8600463,27.5123212 34.0733364,27.2728227 34.1621895,26.9745148 C34.3002634,26.5097939 34.0816464,26.0056537 33.6424947,25.7757436" id="Fill-1" fill="#612D0F"></path>
                    <path d="M30.8484584,30.3190355 C30.4755737,29.9964369 29.920295,29.9932408 29.5280202,30.3109386 L29.527381,30.3113647 C29.4430025,30.3797625 29.3556409,30.4562571 29.2546424,30.5446841 C28.6124283,31.1063551 27.4221801,32.1559724 25.0960184,32.0886401 C23.570387,32.0473031 22.4675004,31.4572929 21.4008369,30.8864596 C19.5911739,29.9180246 17.8818701,29.0034981 14.6658988,30.9416465 C13.9312093,31.3844206 12.2728309,32.055187 11.0469989,32.0886401 C8.72296793,32.1585293 7.56318976,31.1357597 6.86919794,30.5282771 C6.76969098,30.4411286 6.68041171,30.3633555 6.60050783,30.2990063 C6.16050381,29.9459377 5.51466739,30.0164662 5.16138571,30.4566833 C4.99028487,30.6697603 4.91229869,30.9369588 4.94212947,31.2088451 C4.97196025,31.4805183 5.10577261,31.7247045 5.31821039,31.8949531 C5.37787195,31.9431085 5.45244891,32.00831 5.54023663,32.0854439 C6.33160465,32.7783704 7.98295147,34.2198363 11.1021858,34.1350317 C12.6192941,34.0941209 14.6149734,33.3624144 15.7223346,32.6948442 C16.6756412,32.1206016 17.4220499,31.85319 18.0715086,31.85319 C18.7207543,31.85319 19.4671631,32.1206016 20.4206827,32.6952703 C21.528257,33.3628406 23.5241493,34.0941209 25.0410446,34.1350317 C25.1326677,34.1373755 25.2230123,34.138654 25.3120785,34.138654 C28.0857019,34.1384409 29.5086302,32.9720574 30.5563299,32.1131439 C30.647953,32.0381408 30.7368061,31.9656946 30.8239546,31.8955923 C31.0615355,31.7053145 31.2008878,31.4210698 31.2068232,31.1159435 C31.212394,30.8112434 31.0817778,30.5203933 30.8484584,30.3190355" id="Fill-3" fill="#612D0F"></path>
                    <g id="Group-7" transform="translate(14.463936, 33.910704)">
                        <mask id="mask-2" fill="white">
                            <use xlink:href="#path-1"></use>
                        </mask>
                        <g id="Clip-6"></g>
                        <path d="M6.56955603,1.16531817 C5.44919711,0.388439388 4.47415672,-3.02800643e-15 3.49996863,-3.02800643e-15 C2.53430362,-3.02800643e-15 1.56991708,0.381620924 0.465752013,1.14422354 C0.0131764443,1.45680751 -0.133420538,2.06024161 0.132073416,2.51857025 C0.275474243,2.76637882 0.517529726,2.94387196 0.796021378,3.0056643 C1.07451303,3.06830894 1.3685593,3.00992584 1.60337017,2.84670885 C3.21977236,1.72123608 3.96298497,1.85504845 5.37483324,2.82795807 C5.82314726,3.13755897 6.4363829,3.06532586 6.77027457,2.66516724 C6.95543849,2.44441945 7.03960391,2.1548478 7.00103697,1.87060307 C6.96289619,1.58614526 6.80543228,1.32917439 6.56955603,1.16531817" id="Fill-5" fill="#612D0F" mask="url(#mask-2)"></path>
                    </g>
                    <g id="Group-10" transform="translate(0.000000, 0.418414)">
                        <mask id="mask-4" fill="white">
                            <use xlink:href="#path-3"></use>
                        </mask>
                        <g id="Clip-9"></g>
                        <path d="M6.36363012,23.3378923 C6.48721479,23.4235492 6.60952099,23.5102716 6.73182719,23.5965677 C7.87519843,24.4062604 9.05777583,25.2432269 11.1325067,25.2432269 C13.7471747,25.2432269 16.5433843,23.5034531 16.8289074,20.1711417 C16.830399,20.1481294 16.8325298,19.8668678 16.8325298,17.4273491 C16.8325298,14.9660965 15.2593822,12.7204779 13.7380123,11.1956989 C13.3107929,10.7674141 12.9059466,10.3615024 12.5398803,9.9562299 C12.3986103,8.39352311 12.220904,7.06690565 12.0785686,6.08057217 C12.1914994,5.92246903 12.4371772,5.55128888 13.0915367,4.56303771 L15.0418306,1.6195919 C15.3437607,1.16467248 15.2591691,0.552076082 14.8485697,0.224576718 C14.6241996,0.0453789528 14.331858,-0.0326072327 14.0499571,0.0125650934 C13.7672039,0.0568851114 13.5140684,0.219249793 13.3555391,0.45810912 L11.6353684,3.05168248 C11.5914746,2.73185389 11.5465153,2.3887999 11.5053914,2.04105822 C11.4408291,1.49856416 10.9716335,1.07965476 10.4568395,1.1005363 C10.1691855,1.10884631 9.89687309,1.2377579 9.70979148,1.45445722 C9.52228371,1.67115654 9.43406983,1.9588105 9.46752292,2.24326831 C9.57960143,3.19380485 9.71469225,4.09533367 9.85788,5.05013175 C9.99680621,5.97659059 10.1395678,6.92819252 10.2712494,7.99357756 C10.0564678,7.81224903 9.85873231,7.64434435 9.66951993,7.4834712 C8.72771954,6.68315396 7.9838677,6.05095447 6.39090398,4.83705474 C5.9560138,4.50550692 5.33936894,4.55067924 4.98523495,4.93933171 C4.79218718,5.15198256 4.69630252,5.43750576 4.72229792,5.72238972 C4.74850639,6.00727368 4.89403799,6.27021071 5.12160423,6.44344232 C5.59953597,6.80759093 6.0171669,7.13125491 6.40496706,7.43915119 L4.17021539,7.31769729 C3.88639681,7.30022498 3.60343054,7.40591117 3.39823738,7.60662971 C3.19219191,7.80756133 3.07990033,8.08903606 3.09012802,8.37732926 C3.10823957,8.90128563 3.54888283,9.33447119 4.09286843,9.36366274 L9.03817275,9.63171361 C9.63010068,10.13074 10.1896409,10.5937563 10.8363296,11.1200565 C11.2631229,11.6088552 11.76982,12.1185354 12.2598971,12.6113825 C12.8703628,13.2252574 13.4921215,13.8510646 13.9664309,14.4395833 C13.2008452,14.0253616 12.3150841,13.7513445 11.296576,13.6109268 C10.3424171,12.1683954 9.08547584,11.0546419 9.03050197,11.0062734 C8.60605257,10.6340279 7.95851154,10.6762171 7.58583985,11.0998142 C7.21338124,11.5240505 7.25557048,12.1720177 7.67874143,12.5438371 C7.73584606,12.5947625 8.14942854,12.966795 8.64142335,13.5205821 C8.12002391,13.5510521 7.6947222,13.6015514 7.43071979,13.6384137 C7.04270655,13.3160282 5.76573603,12.2540524 4.73934408,11.400892 L3.33303581,10.2317385 C3.11292726,10.0487053 2.82356868,9.96539221 2.54038934,10.0045984 C2.25720999,10.0429522 2.0004522,10.2006292 1.83680905,10.4365055 C1.53722278,10.8679864 1.63140282,11.4793044 2.05116453,11.8281114 L4.05600611,13.4947998 L1.26725421,13.4947998 C0.721777062,13.4947998 0.258547643,13.9045469 0.212949163,14.4272248 C0.187806076,14.7133872 0.284329962,14.9986973 0.477590809,15.2098566 C0.671064734,15.421016 0.946147153,15.5420437 1.23230958,15.5420437 L4.06580765,15.5420437 L0.473755423,17.8270816 C-0.0022586163,18.1302901 -0.143315597,18.7639812 0.159679911,19.2404214 C0.462675419,19.7164354 1.0967926,19.8574924 1.57280664,19.5544969 L7.67597142,15.6715945 C8.16903162,15.601066 9.46880138,15.4540429 10.8090558,15.6089499 C9.64416376,16.7589265 8.48822098,18.0378147 8.43282096,18.0991809 C8.24978781,18.3024564 8.15667316,18.5645411 8.17052316,18.8374927 C8.18458625,19.1106575 8.30412245,19.3618753 8.50718484,19.5446953 C8.71024723,19.7281546 8.97169272,19.8214824 9.24570975,19.8072062 C9.5186614,19.7931431 9.76966612,19.6733938 9.95291235,19.4705445 C9.97145005,19.4498761 11.7636408,17.4693253 13.064689,16.2876002 C14.799562,17.285866 14.7921043,18.7128427 14.7863512,19.8677201 L14.7863512,20.0396732 C14.6467858,22.2916841 12.5383888,22.9658598 12.2986771,23.0351098 C11.0888259,23.3851954 9.71021763,23.1663653 8.69980646,22.4664073 L7.5298006,21.6554362 C5.71459755,20.3972164 3.09694649,20.2685179 1.01667564,21.3353945 C0.52382852,21.5878908 0.301589199,22.1704433 0.510617746,22.6613727 C0.622696253,22.9243098 0.840460957,23.129716 1.10829876,23.2258137 C1.3757104,23.3216984 1.6742313,23.3014561 1.92587524,23.1697745 C3.33644505,22.435085 5.16123656,22.5045481 6.36363012,23.3378923" id="Fill-8" fill="#612D0F" mask="url(#mask-4)"></path>
                    </g>
                    <g id="Group-13" transform="translate(14.297566, 0.000000)">
                        <mask id="mask-6" fill="white">
                            <use xlink:href="#path-5"></use>
                        </mask>
                        <g id="Clip-12"></g>
                        <path d="M19.9853104,17.8706718 C20.1860289,18.0562618 20.4489659,18.1502288 20.7204261,18.1414926 C20.9933777,18.1306257 21.245874,18.0140726 21.431251,17.8129279 C21.8141503,17.39828 21.788368,16.7494605 21.3743594,16.3669873 C20.2808482,15.35338 19.1398208,14.3719473 17.3606278,13.5296539 L18.9425115,13.2441307 C19.4794655,13.1469675 19.8621519,12.6615781 19.8139965,12.1391133 C19.7873618,11.8529509 19.6418302,11.5893746 19.414264,11.4163561 C19.1864847,11.2429114 18.8932907,11.1715306 18.611816,11.2233083 L15.0766553,11.8612609 C13.4670716,12.1514718 13.089073,12.2196564 12.9699629,12.2488479 C12.8572452,12.2403249 12.7451667,12.2341456 12.6333012,12.2305233 C13.3328331,11.5271561 13.9844225,10.8772712 14.5605828,10.3047333 C14.7063275,10.3075033 14.9950468,10.3083556 15.6229848,10.3100602 L17.8319541,10.3168787 C18.395969,10.3168787 18.8560022,9.85918928 18.8577068,9.29687906 C18.8585591,9.02350125 18.753086,8.76610423 18.5604644,8.57199107 C18.3678428,8.37787791 18.1108719,8.2704871 17.8377072,8.26963479 L16.6289213,8.26558633 C17.1049354,7.79916076 17.3804439,7.53217526 17.3936547,7.51960372 C17.5903248,7.32932595 17.7011248,7.07405969 17.7053864,6.80068189 C17.709861,6.52730409 17.607584,6.2686286 17.4175193,6.07217159 C17.0246053,5.66689912 16.3751466,5.65624527 15.9521887,6.06620544 C15.8320133,6.18254548 15.1115999,6.88207731 14.013401,7.96600005 C14.0246941,7.8590354 14.0362003,7.75270997 14.0474933,7.64702377 C14.1553103,6.63299028 14.2573742,5.67563528 14.4619281,4.2017816 C14.4996428,3.93096072 14.4297535,3.66163138 14.265045,3.4436536 C14.0999103,3.22567582 13.8599856,3.08461884 13.5891647,3.04711729 C13.0279199,2.9663611 12.5124866,3.36076665 12.4342873,3.91966764 C12.2246195,5.42953133 12.1146718,6.46082406 12.0085594,7.45823754 C11.9194932,8.29392557 11.8278701,9.15731362 11.6812732,10.2855564 C11.2110122,10.7566696 10.715182,11.2552699 10.1984702,11.7779478 L9.95172707,8.69088804 C9.93255013,8.41708408 9.80747393,8.16735783 9.59993692,7.98773391 C9.3934653,7.8089623 9.13138058,7.72330534 8.85949431,7.74162996 C8.29654486,7.78062306 7.87039084,8.27091326 7.90981008,8.83428887 L8.14419479,11.7587708 C8.21813252,12.8143543 8.25201176,13.2999568 8.27033638,13.5341285 C7.75895156,13.8914586 7.28954291,14.3024842 6.89897275,14.7339651 C6.60343494,13.9813771 4.71557263,11.4417122 4.07698083,10.6767658 L4.62288413,9.38828909 C7.07753128,7.32080287 9.58970923,5.07411888 10.6352781,4.16705005 C10.8511251,3.97954228 10.9796106,3.70744294 10.9870683,3.42128052 C10.994739,3.13575732 10.8807428,2.8570526 10.6742712,2.65761252 C10.2977641,2.29282467 9.68026696,2.28643236 9.26774986,2.64312328 C8.41650721,3.38143512 7.97202857,3.83656761 6.40378178,5.182362 L7.91236701,1.61992748 C8.01911859,1.36849661 8.02146244,1.09000496 7.91875932,0.836443314 C7.8160562,0.58309475 7.62087766,0.384933131 7.36923371,0.278181549 C6.84932581,0.0582860751 6.24717018,0.301833097 6.0272747,0.821527923 L4.92183118,3.43278668 C4.86493962,3.0637373 4.80868729,2.70555484 4.75286111,2.35120778 C4.67721877,1.86922758 4.60221566,1.39427893 4.5295564,0.908250266 C4.44858714,0.367673893 3.98130926,-0.0265185747 3.45181289,0.00139451358 C3.16501123,0.0186537514 2.89717343,0.156088423 2.71712336,0.378327744 C2.53622098,0.600780142 2.45695633,0.890991029 2.49914558,1.17459653 C2.57414869,1.67383596 2.65064333,2.16071693 2.72799029,2.65335097 C2.93765806,3.98337767 3.15414431,5.35815053 3.355289,7.13137741 L2.59822639,8.92037198 C2.47890326,8.78059346 2.3580886,8.63953648 2.23599547,8.49720104 L2.03996462,6.17167856 C1.97199306,5.61213833 1.45634669,5.21091432 0.901068007,5.27824666 C0.340888548,5.34600514 -0.0601223837,5.85675074 0.00742302839,6.4169302 L0.26524621,9.25426365 L0.29443776,9.37912678 L0.347493936,9.44070604 C2.01269077,11.3743799 3.01734887,12.8588874 3.90694538,13.942384 C4.1662601,14.2588034 4.39254789,14.534525 4.58730027,14.7691228 C4.81721037,15.0467622 5.55104759,16.1451741 5.33200442,18.6354052 C5.29215902,19.1063053 5.28555363,19.7436187 5.31304057,20.3841282 C5.46027678,23.7782319 8.07622323,25.2196978 8.76851043,25.4199902 C9.32187143,25.5802241 9.90548935,25.6616195 10.5033834,25.6616195 C12.5725743,25.6616195 13.7613309,24.8223092 14.9104552,24.0102727 C15.0302045,23.9256811 15.1508061,23.8406634 15.27226,23.7562849 C16.6659967,22.7904068 18.338012,22.796373 19.7473034,23.773118 C19.9808358,23.9350565 20.2744559,23.9930135 20.5523083,23.9310081 C20.8297346,23.8694288 21.07179,23.6923618 21.2154039,23.4456186 C21.4843071,22.9851592 21.3374971,22.3800205 20.8812992,22.0685019 C18.7812122,20.6306583 16.1848688,20.6330021 14.1060895,22.0738289 L12.9360837,22.8848 C11.9256725,23.584971 10.5468512,23.8040142 9.36022529,23.4609602 C9.34104836,23.4537156 7.46256144,22.7032583 7.3581537,20.2952751 C7.22860288,17.3090008 7.96499703,16.4345327 8.94088973,15.6016147 C9.86713549,14.811099 10.8475028,14.3811096 11.9399486,14.2905519 L14.641552,18.5137382 C14.8303383,18.809276 15.1527238,18.9859168 15.5045139,18.9859168 C15.8778249,18.9859168 16.2210919,18.781576 16.4013551,18.4527982 C16.583749,18.1199719 16.5703251,17.7304671 16.3661974,17.4106385 L14.6014936,14.6523566 C17.2310769,15.4575746 18.6503829,16.6337597 19.9850973,17.8704587 L19.9853104,17.8706718 Z" id="Fill-11" fill="#612D0F" mask="url(#mask-6)"></path>
                    </g>
                </g>
            </g>
        </g>
    </g>
</svg>